<svg width="1017" height="284" viewBox="0 0 1017 284" fill="none" xmlns="http://www.w3.org/2000/svg">
<g clip-path="url(#clip0_908_149)">
<path d="M274.807 149.007C274.807 109.706 257.427 74.4089 229.977 50.3267C205.894 22.8766 170.597 5.49658 131.297 5.49658C58.9002 5.49658 0 64.3968 0 136.793C0 176.084 17.3739 211.376 44.8149 235.458C68.8971 262.917 104.201 280.303 143.51 280.303C143.767 280.303 144.017 280.285 144.274 280.285C144.53 280.285 144.78 280.303 145.037 280.303C216.706 280.303 274.807 222.203 274.807 150.533C274.807 150.277 274.788 150.027 274.788 149.77C274.788 149.514 274.807 149.263 274.807 149.007ZM51.3827 214.261C38.421 196.008 30.7112 173.776 30.5524 149.77C30.9646 87.1417 81.642 36.4612 144.274 36.049C168.279 36.2078 190.514 43.9176 208.765 56.8793C229.69 77.1692 242.746 105.52 242.746 136.793C242.746 198.246 192.749 248.243 131.297 248.243C100.024 248.243 71.6726 235.186 51.3827 214.261ZM3.05341 136.793C3.05341 66.0793 60.5827 8.54999 131.297 8.54999C161.397 8.54999 189.085 18.9988 210.99 36.4276C191.256 24.556 168.17 17.7102 143.51 17.7102C71.1139 17.7102 12.2136 76.6105 12.2136 149.007C12.2136 173.66 19.0563 196.741 30.9219 216.472C13.4991 194.573 3.05341 166.888 3.05341 136.793ZM143.51 261.983C112.732 261.983 84.8023 249.601 64.4116 229.571C83.2634 243.217 106.375 251.296 131.297 251.296C194.435 251.296 245.799 199.932 245.799 136.793C245.799 111.871 237.72 88.76 224.074 69.9082C244.105 90.2989 256.486 118.228 256.486 149.007C256.486 211.302 205.806 261.983 143.51 261.983Z" fill="#11999E"/>
<path d="M412.384 9.93876L475.123 156.535H451.932L437.231 120.3H367.453L352.959 156.535H329.769L394.37 9.93876H412.384ZM374.493 102.908H429.984L402.653 35.6139H402.239L374.493 102.908ZM509.494 0V156.535H490.859V0H509.494ZM559.395 0V156.535H540.76V0H559.395ZM598.736 58.3902L627.931 135.002H628.345L656.091 58.3902H676.176L629.795 177.241C625.516 188.699 620.822 196.394 615.715 200.328C610.608 204.262 604.05 206.229 596.044 206.229C589.281 206.229 583.759 205.332 579.48 203.538L581.758 186.766C585.623 188.146 589.35 188.836 592.939 188.836C598.736 188.836 602.912 187.422 605.466 184.592C608.019 181.762 610.262 177.724 612.195 172.479L617.992 157.157L577.202 58.3902H598.736ZM735.394 6.21173C748.922 6.21173 759.759 9.7315 767.902 16.7717C776.046 23.8118 780.188 33.5433 780.326 45.9668C780.326 53.835 778.013 60.7714 773.389 66.7761C768.765 72.7807 762.726 76.9565 755.272 79.303V79.7171C764.382 81.3736 771.456 85.5837 776.495 92.3477C781.534 99.1116 784.053 107.186 784.053 116.573C784.053 129.411 779.497 139.66 770.387 147.321C761.276 154.983 749.542 158.882 735.187 159.02C723.04 159.02 712.928 156.259 704.853 150.738C696.778 145.216 691.153 137.349 687.978 127.133L708.891 120.715C711.652 128.583 715.068 134.036 719.14 137.072C723.212 140.109 728.699 141.627 735.601 141.627C743.745 141.627 750.544 139.143 755.996 134.173C761.449 129.204 764.175 122.854 764.175 115.124C764.175 106.013 761.035 99.1806 754.754 94.6253C748.473 90.07 737.879 87.7924 722.971 87.7924V70.3996C735.256 70.3996 744.573 68.8121 750.924 65.6372C757.274 62.4624 760.448 56.3888 760.448 47.4162C760.448 39.824 758.205 33.9574 753.719 29.8163C749.232 25.6751 743.262 23.6046 735.808 23.6046C730.425 23.6046 725.594 25.1575 721.314 28.2634C717.035 31.3692 713.722 35.4758 711.376 40.5833L691.084 33.7504C694.673 25.054 700.332 18.2904 708.063 13.4587C715.793 8.62705 724.904 6.21173 735.394 6.21173ZM875.986 9.93876L839.13 66.6725H839.958C844.513 64.4638 849.897 63.3596 856.109 63.3596C864.253 63.3596 871.811 65.2231 878.781 68.9502C885.752 72.6772 891.239 77.9917 895.243 84.8936C899.246 91.7954 901.316 100.078 901.454 109.74C901.454 124.925 896.795 136.9 887.478 145.665C878.16 154.43 866.047 158.882 851.139 159.02C836.922 159.02 825.05 154.637 815.525 145.872C806.001 137.107 801.101 125.753 800.824 111.811C800.824 104.771 801.756 98.2488 803.62 92.2441C805.483 86.2395 809.383 78.4054 815.318 68.7431L852.589 9.93876H875.986ZM820.702 111.19C820.702 120.3 823.497 127.616 829.088 133.138C834.678 138.66 842.029 141.489 851.14 141.628C860.112 141.628 867.428 138.798 873.088 133.138C878.748 127.479 881.577 120.163 881.577 111.19C881.577 102.356 878.851 95.109 873.398 89.4491C867.946 83.7891 860.457 80.8908 850.932 80.7526C842.098 80.7526 834.851 83.5479 829.191 89.1385C823.532 94.729 820.702 102.079 820.702 111.19ZM966.263 7.45407C982.414 7.45407 994.872 14.1487 1003.64 27.5387C1012.4 40.9286 1016.79 59.4938 1016.79 83.2371C1016.79 107.117 1012.44 125.684 1003.74 138.936C995.044 152.187 982.553 158.882 966.263 159.02C950.389 159.02 938.035 152.36 929.2 139.039C920.365 125.718 915.879 107.117 915.741 83.2371C915.741 59.2185 920.124 40.6185 928.889 27.4351C937.655 14.2518 950.113 7.59176 966.263 7.45407ZM935.619 83.2371C935.619 102.149 938.242 116.609 943.487 126.616C948.733 136.623 956.325 141.627 966.263 141.627C976.202 141.627 983.76 136.658 988.936 126.719C994.113 116.78 996.77 102.286 996.908 83.2371C996.77 44.5857 986.486 25.1223 966.056 24.8469C956.394 24.8469 948.94 29.6438 943.694 39.2374C938.448 48.831 935.757 63.4983 935.619 83.2371Z" fill="#40514E"/>
<path d="M348.344 267.995H345.573C344.776 264.28 341.681 263.602 339.646 263.602C335.813 263.602 332.717 266.433 332.717 272.005C332.717 276.988 334.486 280.821 339.735 280.821C341.592 280.821 344.806 279.937 345.779 275.013H348.551C347.371 283.003 340.884 283.357 339.292 283.357C334.486 283.357 329.769 280.232 329.769 272.094C329.769 265.578 333.484 261.066 339.646 261.066C345.101 261.066 347.931 264.457 348.344 267.995ZM373.513 272.212C373.513 267.229 370.741 263.602 366.141 263.602C361.542 263.602 358.77 267.229 358.77 272.212C358.77 277.195 361.542 280.821 366.141 280.821C370.741 280.821 373.513 277.195 373.513 272.212ZM376.461 272.212C376.461 276.782 374.043 283.357 366.141 283.357C358.239 283.357 355.822 276.782 355.822 272.212C355.822 267.642 358.239 261.066 366.141 261.066C374.043 261.066 376.461 267.642 376.461 272.212ZM398.799 278.728V261.627H401.571V282.797H398.357L387.595 265.696H387.536V282.797H384.764V261.627H388.155L398.74 278.728H398.799ZM409.136 264.162V261.627H426.326V264.162H419.161V282.797H416.301V264.162H409.136ZM445.716 276.635H437.224L435.013 282.797H432.064L440.025 261.627H443.268L450.934 282.797H447.809L445.716 276.635ZM438.108 274.099H444.684L441.558 264.782H441.499L438.108 274.099ZM461.272 264.074V270.59H466.432C469.174 270.59 470.855 269.764 470.855 267.17C470.855 265.194 469.646 264.074 466.461 264.074H461.272ZM458.412 282.797V261.627H467.729C471.68 261.627 473.715 264.074 473.715 266.963C473.715 268.349 473.213 270.295 470.884 271.386C472.27 271.946 474.717 272.919 474.717 276.546C474.717 279.937 472.211 282.797 467.523 282.797H458.412ZM461.272 272.919V280.35H467.375C470.353 280.35 471.857 278.846 471.857 276.487C471.857 273.509 469.233 272.919 466.904 272.919H461.272ZM486.352 261.627V282.797H483.492V261.627H486.352ZM499.019 261.627V280.261H509.751V282.797H496.159V261.627H499.019ZM520.767 261.627V282.797H517.907V261.627H520.767ZM530.721 282.797V261.627H539.301C544.815 261.627 548.206 265.814 548.206 271.917C548.206 276.664 546.142 282.797 539.183 282.797H530.721ZM533.581 264.074V280.35H539.124C542.839 280.35 545.257 277.431 545.257 272.094C545.257 266.757 542.81 264.074 538.918 264.074H533.581ZM568.598 276.635H560.106L557.895 282.797H554.946L562.907 261.627H566.15L573.816 282.797H570.691L568.598 276.635ZM560.99 274.099H567.566L564.44 264.782H564.381L560.99 274.099ZM581.5 282.797V261.627H590.08C595.594 261.627 598.985 265.814 598.985 271.917C598.985 276.664 596.921 282.797 589.962 282.797H581.5ZM584.36 264.074V280.35H589.904C593.619 280.35 596.036 277.431 596.036 272.094C596.036 266.757 593.589 264.074 589.697 264.074H584.36ZM636.584 280.261V282.797H620.957V261.627H636.378V264.162H623.817V270.649H635.405V273.185H623.817V280.261H636.584ZM661.652 261.627V282.797H658.792V261.627H661.652ZM685.494 278.728V261.627H688.266V282.797H685.052L674.29 265.696H674.231V282.797H671.459V261.627H674.85L685.435 278.728H685.494ZM705.296 279.671L711.282 261.627H714.496L706.771 282.797H703.734L696.008 261.627H699.193L705.237 279.671H705.296ZM738.16 280.261V282.797H722.533V261.627H737.954V264.162H725.393V270.649H736.981V273.185H725.393V280.261H738.16ZM760.852 278.728V261.627H763.624V282.797H760.41L749.648 265.696H749.589V282.797H746.817V261.627H750.208L760.793 278.728H760.852ZM771.189 264.162V261.627H788.379V264.162H781.214V282.797H778.354V264.162H771.189ZM807.769 276.635H799.277L797.066 282.797H794.117L802.078 261.627H805.321L812.988 282.797H809.862L807.769 276.635ZM800.162 274.099H806.737L803.611 264.782H803.552L800.162 274.099ZM823.738 273.715V282.797H820.878V261.627H830.667C834.146 261.627 837.625 262.836 837.625 267.317C837.625 270.443 836.033 271.593 834.677 272.389C835.886 272.89 837.095 273.421 837.212 276.369L837.389 280.202C837.419 281.382 837.566 281.824 838.451 282.325V282.797H834.942C834.529 281.5 834.441 278.286 834.441 277.49C834.441 275.75 834.087 273.715 830.667 273.715H823.738ZM823.738 264.074V271.268H830.372C832.465 271.268 834.677 270.738 834.677 267.612C834.677 264.339 832.288 264.074 830.873 264.074H823.738ZM850.027 261.627V282.797H847.167V261.627H850.027ZM876.433 272.212C876.433 267.229 873.662 263.602 869.062 263.602C864.463 263.602 861.691 267.229 861.691 272.212C861.691 277.195 864.463 280.821 869.062 280.821C873.662 280.821 876.433 277.195 876.433 272.212ZM879.382 272.212C879.382 276.782 876.964 283.357 869.062 283.357C861.16 283.357 858.742 276.782 858.742 272.212C858.742 267.642 861.16 261.066 869.062 261.066C876.964 261.066 879.382 267.642 879.382 272.212Z" fill="#40514E"/>
</g>
<defs>
<clipPath id="clip0_908_149">
<rect width="1016.78" height="283.357" fill="white"/>
</clipPath>
</defs>
</svg>
