<svg width="396" height="110.35708061545107" viewBox="0 0 370 103.1114137063558" class="css-1j8o68f"><defs id="SvgjsDefs3517"></defs><g id="SvgjsG3518" featurekey="HKaMnE-0" transform="matrix(1.1111111111111112,0,0,1.1111111111111112,-5.555555555555555,-3.5555555555555554)" fill="#11999e"><path xmlns="http://www.w3.org/2000/svg" fill="#11999e" d="M95,52c0-12.871-5.692-24.431-14.682-32.318C72.431,10.692,60.871,5,48,5C24.29,5,5,24.29,5,48  c0,12.868,5.69,24.426,14.677,32.313C27.564,89.306,39.126,95,52,95c0.084,0,0.166-0.006,0.25-0.006S52.416,95,52.5,95  C75.972,95,95,75.972,95,52.5c0-0.084-0.006-0.166-0.006-0.25S95,52.084,95,52z M21.828,73.371  c-4.245-5.978-6.77-13.259-6.822-21.121c0.135-20.511,16.732-37.109,37.244-37.244c7.862,0.052,15.144,2.577,21.121,6.822  C80.224,28.473,84.5,37.758,84.5,48c0,20.126-16.374,36.5-36.5,36.5C37.758,84.5,28.473,80.224,21.828,73.371z M6,48  C6,24.841,24.841,6,48,6c9.858,0,18.926,3.422,26.1,9.13C67.637,11.242,60.076,9,52,9C28.29,9,9,28.29,9,52  c0,8.074,2.241,15.633,6.127,22.095C9.421,66.923,6,57.856,6,48z M52,89c-10.08,0-19.227-4.055-25.905-10.615  C32.269,82.854,39.838,85.5,48,85.5c20.678,0,37.5-16.822,37.5-37.5c0-8.162-2.646-15.731-7.115-21.905  C84.945,32.773,89,41.92,89,52C89,72.402,72.402,89,52,89z"></path></g><g id="SvgjsG3519" featurekey="J3GnXt-0" transform="matrix(3.7673296820464803,0,0,3.7673296820464803,119.92465437641657,-18.38456927952349)" fill="#40514e"><path d="M8 5.84 l6.06 14.16 l-2.24 0 l-1.42 -3.5 l-6.74 0 l-1.4 3.5 l-2.24 0 l6.24 -14.16 l1.74 0 z M4.34 14.82 l5.36 0 l-2.64 -6.5 l-0.04 0 z M17.38 4.880000000000001 l0 15.12 l-1.8 0 l0 -15.12 l1.8 0 z M22.2 4.880000000000001 l0 15.12 l-1.8 0 l0 -15.12 l1.8 0 z M26 10.52 l2.82 7.4 l0.04 0 l2.68 -7.4 l1.94 0 l-4.48 11.48 c-0.41334 1.1067 -0.86668 1.85 -1.36 2.23 s-1.1267 0.57 -1.9 0.57 c-0.65334 0 -1.1867 -0.08666 -1.6 -0.26 l0.22 -1.62 c0.37334 0.13334 0.73334 0.2 1.08 0.2 c0.56 0 0.96334 -0.13666 1.21 -0.41 s0.46332 -0.66334 0.64998 -1.17 l0.56 -1.48 l-3.94 -9.54 l2.08 0 z M39.2 5.48 c1.3067 0 2.3534 0.33998 3.14 1.02 s1.1867 1.62 1.2 2.82 c0 0.76 -0.22334 1.43 -0.67 2.01 s-1.03 0.98334 -1.75 1.21 l0 0.04 c0.88 0.16 1.5633 0.56666 2.05 1.22 s0.73 1.4333 0.73 2.34 c0 1.24 -0.44 2.23 -1.32 2.97 s-2.0134 1.1167 -3.4 1.13 c-1.1733 0 -2.15 -0.26666 -2.93 -0.8 s-1.3233 -1.2933 -1.63 -2.28 l2.02 -0.62 c0.26666 0.76 0.59666 1.2867 0.99 1.58 s0.92334 0.44 1.59 0.44 c0.78666 0 1.4433 -0.24 1.97 -0.72 s0.79 -1.0933 0.79 -1.84 c0 -0.88 -0.30334 -1.54 -0.91 -1.98 s-1.63 -0.66 -3.07 -0.66 l0 -1.68 c1.1867 0 2.0866 -0.15334 2.7 -0.46 s0.92 -0.89332 0.92 -1.76 c0 -0.73334 -0.21666 -1.3 -0.65 -1.7 s-1.01 -0.6 -1.73 -0.6 c-0.52 0 -0.98666 0.15 -1.4 0.45 s-0.73334 0.69666 -0.96 1.19 l-1.96 -0.66 c0.34666 -0.84 0.89332 -1.4933 1.64 -1.96 s1.6267 -0.7 2.64 -0.7 z M52.78000000000001 5.84 l-3.56 5.48 l0.08 0 c0.44 -0.21334 0.96 -0.32 1.56 -0.32 c0.78666 0 1.5167 0.18 2.19 0.54 s1.2033 0.87334 1.59 1.54 s0.58666 1.4667 0.6 2.4 c0 1.4667 -0.45 2.6234 -1.35 3.47 s-2.07 1.2767 -3.51 1.29 c-1.3733 0 -2.52 -0.42334 -3.44 -1.27 s-1.3933 -1.9433 -1.42 -3.29 c0 -0.68 0.09 -1.31 0.27 -1.89 s0.55666 -1.3367 1.13 -2.27 l3.6 -5.68 l2.26 0 z M47.440000000000005 15.620000000000001 c0 0.88 0.27002 1.5866 0.81002 2.12 s1.25 0.80668 2.13 0.82002 c0.86666 0 1.5733 -0.27334 2.12 -0.82 s0.82 -1.2533 0.82 -2.12 c0 -0.85334 -0.26334 -1.5533 -0.79 -2.1 s-1.25 -0.82666 -2.17 -0.84 c-0.85334 0 -1.5533 0.27 -2.1 0.81 s-0.82 1.25 -0.82 2.13 z M61.500000000000014 5.6 c1.56 0 2.7634 0.64664 3.61 1.94 s1.27 3.0866 1.27 5.38 c0 2.3066 -0.42 4.1 -1.26 5.38 s-2.0466 1.9267 -3.62 1.94 c-1.5333 0 -2.7266 -0.64334 -3.58 -1.93 s-1.2867 -3.0834 -1.3 -5.39 c0 -2.32 0.42334 -4.1166 1.27 -5.39 s2.05 -1.9167 3.61 -1.93 z M58.54000000000001 12.92 c0 1.8267 0.25336 3.2234 0.76002 4.19 s1.24 1.45 2.2 1.45 s1.69 -0.48 2.19 -1.44 s0.75666 -2.36 0.77 -4.2 c-0.01334 -3.7334 -1.0067 -5.6134 -2.98 -5.64 c-0.93334 0 -1.6533 0.46334 -2.16 1.39 s-0.76666 2.3434 -0.78 4.25 z"></path></g><g id="SvgjsG3520" featurekey="sloganFeature-0" transform="matrix(0.5364691983708153,0,0,0.5364691983708153,119.52790729984811,92.1781721495899)" fill="#40514e"><path d="M13.48 9.96 l-1.88 0 c-0.54 -2.52 -2.64 -2.98 -4.02 -2.98 c-2.6 0 -4.7 1.92 -4.7 5.7 c0 3.38 1.2 5.98 4.76 5.98 c1.26 0 3.44 -0.6 4.1 -3.94 l1.88 0 c-0.8 5.42 -5.2 5.66 -6.28 5.66 c-3.26 0 -6.46 -2.12 -6.46 -7.64 c0 -4.42 2.52 -7.48 6.7 -7.48 c3.7 0 5.62 2.3 5.9 4.7 z M30.552 12.82 c0 -3.38 -1.88 -5.84 -5 -5.84 s-5 2.46 -5 5.84 s1.88 5.84 5 5.84 s5 -2.46 5 -5.84 z M32.552 12.82 c0 3.1 -1.64 7.56 -7 7.56 s-7 -4.46 -7 -7.56 s1.64 -7.56 7 -7.56 s7 4.46 7 7.56 z M47.704 17.240000000000002 l0 -11.6 l1.88 0 l0 14.36 l-2.18 0 l-7.3 -11.6 l-0.04 0 l0 11.6 l-1.88 0 l0 -14.36 l2.3 0 l7.18 11.6 l0.04 0 z M54.716 7.359999999999999 l0 -1.72 l11.66 0 l0 1.72 l-4.86 0 l0 12.64 l-1.94 0 l0 -12.64 l-4.86 0 z M79.52799999999999 15.82 l-5.76 0 l-1.5 4.18 l-2 0 l5.4 -14.36 l2.2 0 l5.2 14.36 l-2.12 0 z M74.368 14.1 l4.46 0 l-2.12 -6.32 l-0.04 0 z M90.08 7.300000000000001 l0 4.42 l3.5 0 c1.86 0 3 -0.56 3 -2.32 c0 -1.34 -0.82 -2.1 -2.98 -2.1 l-3.52 0 z M88.14 20 l0 -14.36 l6.32 0 c2.68 0 4.06 1.66 4.06 3.62 c0 0.94 -0.34 2.26 -1.92 3 c0.94 0.38 2.6 1.04 2.6 3.5 c0 2.3 -1.7 4.24 -4.88 4.24 l-6.18 0 z M90.08 13.3 l0 5.04 l4.14 0 c2.02 0 3.04 -1.02 3.04 -2.62 c0 -2.02 -1.78 -2.42 -3.36 -2.42 l-3.82 0 z M107.092 5.640000000000001 l0 14.36 l-1.94 0 l0 -14.36 l1.94 0 z M115.68399999999998 5.640000000000001 l0 12.64 l7.28 0 l0 1.72 l-9.22 0 l0 -14.36 l1.94 0 z M130.43599999999998 5.640000000000001 l0 14.36 l-1.94 0 l0 -14.36 l1.94 0 z M137.188 20 l0 -14.36 l5.82 0 c3.74 0 6.04 2.84 6.04 6.98 c0 3.22 -1.4 7.38 -6.12 7.38 l-5.74 0 z M139.128 7.300000000000001 l0 11.04 l3.76 0 c2.52 0 4.16 -1.98 4.16 -5.6 s-1.66 -5.44 -4.3 -5.44 l-3.62 0 z M162.87999999999997 15.82 l-5.76 0 l-1.5 4.18 l-2 0 l5.4 -14.36 l2.2 0 l5.2 14.36 l-2.12 0 z M157.71999999999997 14.1 l4.46 0 l-2.12 -6.32 l-0.04 0 z M171.63199999999998 20 l0 -14.36 l5.82 0 c3.74 0 6.04 2.84 6.04 6.98 c0 3.22 -1.4 7.38 -6.12 7.38 l-5.74 0 z M173.57199999999997 7.300000000000001 l0 11.04 l3.76 0 c2.52 0 4.16 -1.98 4.16 -5.6 s-1.66 -5.44 -4.3 -5.44 l-3.62 0 z M208.99599999999995 18.28 l0 1.72 l-10.6 0 l0 -14.36 l10.46 0 l0 1.72 l-8.52 0 l0 4.4 l7.86 0 l0 1.72 l-7.86 0 l0 4.8 l8.66 0 z M225.99999999999994 5.640000000000001 l0 14.36 l-1.94 0 l0 -14.36 l1.94 0 z M242.17199999999994 17.240000000000002 l0 -11.6 l1.88 0 l0 14.36 l-2.18 0 l-7.3 -11.6 l-0.04 0 l0 11.6 l-1.88 0 l0 -14.36 l2.3 0 l7.18 11.6 l0.04 0 z M255.60399999999993 17.88 l4.06 -12.24 l2.18 0 l-5.24 14.36 l-2.06 0 l-5.24 -14.36 l2.16 0 l4.1 12.24 l0.04 0 z M277.89599999999996 18.28 l0 1.72 l-10.6 0 l0 -14.36 l10.46 0 l0 1.72 l-8.52 0 l0 4.4 l7.86 0 l0 1.72 l-7.86 0 l0 4.8 l8.66 0 z M293.288 17.240000000000002 l0 -11.6 l1.88 0 l0 14.36 l-2.18 0 l-7.3 -11.6 l-0.04 0 l0 11.6 l-1.88 0 l0 -14.36 l2.3 0 l7.18 11.6 l0.04 0 z M300.29999999999995 7.359999999999999 l0 -1.72 l11.66 0 l0 1.72 l-4.86 0 l0 12.64 l-1.94 0 l0 -12.64 l-4.86 0 z M325.112 15.82 l-5.76 0 l-1.5 4.18 l-2 0 l5.4 -14.36 l2.2 0 l5.2 14.36 l-2.12 0 z M319.952 14.1 l4.46 0 l-2.12 -6.32 l-0.04 0 z M335.944 13.84 l0 6.16 l-1.94 0 l0 -14.36 l6.64 0 c2.36 0 4.72 0.82 4.72 3.86 c0 2.12 -1.08 2.9 -2 3.44 c0.82 0.34 1.64 0.7 1.72 2.7 l0.12 2.6 c0.02 0.8 0.12 1.1 0.72 1.44 l0 0.32 l-2.38 0 c-0.28 -0.88 -0.34 -3.06 -0.34 -3.6 c0 -1.18 -0.24 -2.56 -2.56 -2.56 l-4.7 0 z M335.944 7.300000000000001 l0 4.88 l4.5 0 c1.42 0 2.92 -0.36 2.92 -2.48 c0 -2.22 -1.62 -2.4 -2.58 -2.4 l-4.84 0 z M353.776 5.640000000000001 l0 14.36 l-1.94 0 l0 -14.36 l1.94 0 z M371.688 12.82 c0 -3.38 -1.88 -5.84 -5 -5.84 s-5 2.46 -5 5.84 s1.88 5.84 5 5.84 s5 -2.46 5 -5.84 z M373.688 12.82 c0 3.1 -1.64 7.56 -7 7.56 s-7 -4.46 -7 -7.56 s1.64 -7.56 7 -7.56 s7 4.46 7 7.56 z"></path></g></svg>