<svg width="24" height="24" viewBox="0 0 24 24" fill="none" xmlns="http://www.w3.org/2000/svg">
<g clip-path="url(#clip0_803_161)">
<path d="M14.827 8.17049H9.17011M14.827 8.17049L9.17011 13.8273M14.827 8.17049V13.8273M5.63457 4.63496C4.79885 5.47068 4.13591 6.46284 3.68362 7.55477C3.23133 8.6467 2.99853 9.81702 2.99853 10.9989C2.99853 12.1808 3.23133 13.3511 3.68362 14.4431C4.13591 15.535 4.79885 16.5272 5.63457 17.3629C6.4703 18.1986 7.46245 18.8615 8.55438 19.3138C9.64631 19.7661 10.8166 19.9989 11.9985 19.9989C13.1804 19.9989 14.3508 19.7661 15.4427 19.3138C16.5346 18.8615 17.5268 18.1986 18.3625 17.3629C20.0503 15.6751 20.9985 13.3859 20.9985 10.9989C20.9985 8.61197 20.0503 6.32279 18.3625 4.63496C16.6747 2.94713 14.3855 1.99892 11.9985 1.99892C9.61159 1.99892 7.3224 2.94713 5.63457 4.63496Z" stroke="black" stroke-width="2" stroke-linecap="round" stroke-linejoin="round"/>
</g>
<defs>
<clipPath id="clip0_803_161">
<rect width="24" height="24" fill="white"/>
</clipPath>
</defs>
</svg>
