<svg width="24" height="24" viewBox="0 0 24 24" fill="none" xmlns="http://www.w3.org/2000/svg">
<g clip-path="url(#clip0_803_161)">
<path d="M9.1706 14.8271H14.8275M9.1706 14.8271L14.8275 9.17021M9.1706 14.8271V9.17021M18.363 18.3626C19.1987 17.5269 19.8616 16.5347 20.3139 15.4428C20.7662 14.3509 20.999 13.1805 20.999 11.9986C20.999 10.8167 20.7662 9.64642 20.3139 8.55449C19.8616 7.46256 19.1987 6.47041 18.363 5.63468C17.5273 4.79895 16.5351 4.13601 15.4432 3.68372C14.3512 3.23143 13.1809 2.99864 11.999 2.99864C10.8171 2.99864 9.6468 3.23143 8.55487 3.68372C7.46294 4.13601 6.47079 4.79895 5.63506 5.63468C3.94723 7.32251 2.99902 9.61169 2.99902 11.9986C2.99902 14.3856 3.94723 16.6748 5.63506 18.3626C7.32289 20.0504 9.61208 20.9986 11.999 20.9986C14.386 20.9986 16.6752 20.0504 18.363 18.3626Z" stroke="black" stroke-width="2" stroke-linecap="round" stroke-linejoin="round"/>
</g>
<defs>
<clipPath id="clip0_803_161">
<rect width="24" height="24" fill="white"/>
</clipPath>
</defs>
</svg>
