<svg width="24" height="24" viewBox="0 0 24 24" fill="none" xmlns="http://www.w3.org/2000/svg">
<path opacity="0.4" d="M12 2C10.0222 2 8.08879 2.58649 6.4443 3.6853C4.79981 4.78412 3.51809 6.3459 2.76121 8.17317C2.00433 10.0004 1.8063 12.0111 2.19215 13.9509C2.578 15.8907 3.53041 17.6725 4.92894 19.0711C6.32746 20.4696 8.10929 21.422 10.0491 21.8079C11.9889 22.1937 13.9996 21.9957 15.8268 21.2388C17.6541 20.4819 19.2159 19.2002 20.3147 17.5557C21.4135 15.9112 22 13.9778 22 12C22 10.6868 21.7413 9.38642 21.2388 8.17317C20.7363 6.95991 19.9997 5.85752 19.0711 4.92893C18.1425 4.00035 17.0401 3.26375 15.8268 2.7612C14.6136 2.25866 13.3132 2 12 2ZM12 18C11.7033 18 11.4133 17.912 11.1666 17.7472C10.92 17.5824 10.7277 17.3481 10.6142 17.074C10.5006 16.7999 10.4709 16.4983 10.5288 16.2073C10.5867 15.9164 10.7296 15.6491 10.9393 15.4393C11.1491 15.2296 11.4164 15.0867 11.7074 15.0288C11.9983 14.9709 12.2999 15.0007 12.574 15.1142C12.8481 15.2277 13.0824 15.42 13.2472 15.6666C13.412 15.9133 13.5 16.2033 13.5 16.5C13.5 16.8978 13.342 17.2794 13.0607 17.5607C12.7794 17.842 12.3978 18 12 18ZM13 13.5V14C13 14.2652 12.8946 14.5196 12.7071 14.7071C12.5196 14.8946 12.2652 15 12 15C11.7348 15 11.4804 14.8946 11.2929 14.7071C11.1054 14.5196 11 14.2652 11 14V13C11 12.7348 11.1054 12.4804 11.2929 12.2929C11.4804 12.1054 11.7348 12 12 12C12.5304 12 13.0391 11.7893 13.4142 11.4142C13.7893 11.0391 14 10.5304 14 10C14 9.46957 13.7893 8.96086 13.4142 8.58579C13.0391 8.21071 12.5304 8 12 8C11.4696 8 10.9609 8.21071 10.5858 8.58579C10.2107 8.96086 10 9.46957 10 10C10 10.2652 9.89464 10.5196 9.70711 10.7071C9.51957 10.8946 9.26522 11 9 11C8.73478 11 8.48043 10.8946 8.29289 10.7071C8.10536 10.5196 8 10.2652 8 10C8 8.93913 8.42143 7.92172 9.17157 7.17157C9.92172 6.42143 10.9391 6 12 6C13.0609 6 14.0783 6.42143 14.8284 7.17157C15.5786 7.92172 16 8.93913 16 10C16 11.0609 15.5786 12.0783 14.8284 12.8284C14.0783 13.5786 13.0609 14 12 14C11.7348 14 11.4804 13.8946 11.2929 13.7071C11.1054 13.5196 11 13.2652 11 13H13V13.5Z" fill="currentColor"/>
</svg>
